<svg xmlns="http://www.w3.org/2000/svg" viewBox="0 0 64 64" fill="none">
  <defs>
    <linearGradient id="bg" x1="8" y1="6" x2="57" y2="58" gradientUnits="userSpaceOnUse">
      <stop stop-color="#1F2335" />
      <stop offset="1" stop-color="#0F1117" />
    </linearGradient>
    <linearGradient id="ink" x1="18" y1="12" x2="45" y2="51" gradientUnits="userSpaceOnUse">
      <stop stop-color="#F7B53A" />
      <stop offset="1" stop-color="#E8874F" />
    </linearGradient>
  </defs>

  <rect x="4" y="4" width="56" height="56" rx="15" fill="url(#bg)" />
  <rect x="4.75" y="4.75" width="54.5" height="54.5" rx="14.25" stroke="#F5A623" stroke-opacity=".16" stroke-width="1.5" />

  <rect x="18" y="14" width="26" height="38" rx="12" fill="url(#ink)" />
  <rect x="18" y="14" width="10" height="38" rx="5" fill="url(#ink)" />
  <rect x="22.2" y="18.2" width="3.1" height="4.8" rx="1.1" fill="#0F1117" />
  <rect x="22.2" y="26.4" width="3.1" height="4.8" rx="1.1" fill="#0F1117" />
  <rect x="22.2" y="34.6" width="3.1" height="4.8" rx="1.1" fill="#0F1117" />
  <rect x="22.2" y="42.8" width="3.1" height="4.8" rx="1.1" fill="#0F1117" />
  <path fill="#0F1117" d="M29.4 18.5h3.2c3.7 0 6.7 2.731 6.7 6.1s-3 6.1-6.7 6.1h-3.2V18.5Z" />
  <path fill="#0F1117" d="M29.4 35.3h3.2c3.7 0 6.7 2.731 6.7 6.1s-3 6.1-6.7 6.1h-3.2V35.3Z" />
  <rect x="28.2" y="30.2" width="11.2" height="5.1" rx="2.55" fill="url(#ink)" />
</svg>
