<svg xmlns="http://www.w3.org/2000/svg" viewBox="0 0 64 64">
  <rect x="18" y="14" width="26" height="38" rx="12" fill="#000" />
  <rect x="18" y="14" width="10" height="38" rx="5" fill="#000" />
  <rect x="22.2" y="18.2" width="3.1" height="4.8" rx="1.1" fill="#fff" />
  <rect x="22.2" y="26.4" width="3.1" height="4.8" rx="1.1" fill="#fff" />
  <rect x="22.2" y="34.6" width="3.1" height="4.8" rx="1.1" fill="#fff" />
  <rect x="22.2" y="42.8" width="3.1" height="4.8" rx="1.1" fill="#fff" />
  <path fill="#fff" d="M29.4 18.5h3.2c3.7 0 6.7 2.731 6.7 6.1s-3 6.1-6.7 6.1h-3.2V18.5Z" />
  <path fill="#fff" d="M29.4 35.3h3.2c3.7 0 6.7 2.731 6.7 6.1s-3 6.1-6.7 6.1h-3.2V35.3Z" />
  <rect x="28.2" y="30.2" width="11.2" height="5.1" rx="2.55" fill="#000" />
</svg>
